<svg id="svg" version="1.1" xmlns="http://www.w3.org/2000/svg" xmlns:xlink="http://www.w3.org/1999/xlink" width="400" height="400" viewBox="0, 0, 400,400"><g id="svgg"><path id="path0" d="M193.945 7.343 C 156.019 9.128,123.755 19.338,94.074 38.947 C -4.309 103.944,-22.079 240.304,56.337 328.516 C 59.247 331.789,66.786 339.459,67.073 339.438 C 67.191 339.429,67.177 339.379,67.040 339.323 C 66.905 339.269,66.853 339.130,66.923 339.016 C 67.006 338.883,66.959 338.865,66.794 338.967 C 66.604 339.084,66.570 339.037,66.664 338.791 C 66.735 338.607,66.712 338.506,66.613 338.567 C 66.381 338.710,66.143 337.963,66.326 337.667 C 66.409 337.534,66.382 337.492,66.262 337.566 C 65.959 337.753,65.798 337.190,65.679 335.524 C 65.553 333.763,65.757 332.014,66.038 332.438 C 66.168 332.633,66.189 332.568,66.108 332.219 C 65.981 331.666,66.316 330.585,66.567 330.740 C 66.656 330.795,66.722 330.647,66.714 330.410 C 66.706 330.174,66.799 329.999,66.920 330.022 C 67.042 330.044,67.130 329.912,67.116 329.729 C 67.101 329.545,67.189 329.413,67.311 329.436 C 67.433 329.458,67.521 329.329,67.506 329.147 C 67.492 328.966,67.612 328.816,67.773 328.813 C 67.934 328.811,68.066 328.660,68.066 328.479 C 68.066 328.109,68.834 327.312,69.115 327.391 C 69.215 327.419,69.284 327.389,69.268 327.325 C 69.223 327.146,69.751 326.562,69.957 326.563 C 70.058 326.563,70.078 326.664,70.001 326.788 C 69.914 326.929,69.947 326.960,70.090 326.872 C 70.216 326.794,70.259 326.634,70.186 326.516 C 70.100 326.376,70.171 326.346,70.388 326.429 C 70.578 326.502,70.674 326.478,70.610 326.375 C 70.458 326.128,71.246 325.723,71.607 325.862 C 71.766 325.922,71.844 325.889,71.782 325.788 C 71.582 325.465,73.652 325.000,75.293 325.000 C 76.934 325.000,79.004 325.465,78.804 325.788 C 78.740 325.892,78.836 325.916,79.026 325.843 C 79.271 325.749,79.318 325.784,79.201 325.974 C 79.097 326.143,79.117 326.185,79.260 326.097 C 79.394 326.014,78.923 325.435,78.039 324.595 C 76.128 322.780,70.264 316.499,67.779 313.604 C 13.230 250.084,11.475 156.956,63.591 91.474 C 123.707 15.942,233.551 3.626,308.984 63.960 C 310.757 65.378,312.452 66.598,312.752 66.673 C 313.086 66.756,313.245 66.893,313.161 67.028 C 313.078 67.163,313.114 67.194,313.253 67.107 C 313.515 66.946,314.303 67.150,314.183 67.348 C 314.072 67.532,315.571 67.655,317.773 67.643 C 319.896 67.632,320.894 67.536,320.783 67.354 C 320.667 67.167,321.292 66.971,321.532 67.119 C 321.664 67.201,321.682 67.153,321.580 66.989 C 321.464 66.802,321.509 66.765,321.743 66.854 C 321.942 66.931,322.048 66.887,322.019 66.741 C 321.994 66.611,322.126 66.516,322.312 66.531 C 322.499 66.545,322.610 66.489,322.559 66.406 C 322.437 66.210,323.018 65.726,323.180 65.888 C 323.339 66.047,323.853 65.628,323.734 65.436 C 323.685 65.356,323.862 65.087,324.127 64.838 C 324.392 64.589,324.609 64.455,324.609 64.541 C 324.609 64.626,324.740 64.588,324.900 64.455 C 325.060 64.322,325.140 64.132,325.079 64.032 C 324.941 63.809,325.376 63.249,325.586 63.379 C 325.669 63.430,325.725 63.319,325.710 63.133 C 325.696 62.946,325.790 62.814,325.921 62.839 C 326.067 62.868,326.110 62.762,326.034 62.563 C 325.944 62.329,325.981 62.285,326.169 62.400 C 326.335 62.503,326.381 62.485,326.297 62.350 C 326.154 62.117,326.549 61.101,326.738 61.218 C 326.802 61.258,326.876 61.058,326.902 60.772 C 326.987 59.829,327.052 55.855,326.979 56.074 C 326.940 56.192,326.742 55.919,326.541 55.468 C 326.339 55.017,326.216 54.578,326.269 54.493 C 326.379 54.315,321.721 50.460,317.021 46.839 C 282.492 20.235,236.131 5.357,193.945 7.343 M210.889 108.145 C 173.855 108.177,143.555 108.275,143.555 108.361 C 143.555 109.617,148.173 115.077,159.199 126.855 C 161.411 129.219,164.368 132.471,165.769 134.082 C 169.051 137.857,170.007 138.762,171.094 139.123 C 173.607 139.958,180.496 140.132,193.164 139.680 C 198.692 139.483,208.655 139.435,233.789 139.485 L 267.090 139.551 267.969 140.077 C 269.498 140.993,270.845 142.484,271.258 143.718 C 271.415 144.187,271.480 153.520,271.489 176.987 L 271.502 209.604 271.012 210.440 C 270.298 211.657,268.537 213.182,267.236 213.707 C 266.116 214.159,266.085 214.160,255.519 214.217 C 242.293 214.288,243.202 214.512,239.497 210.270 C 238.363 208.972,236.276 206.636,234.858 205.078 C 233.441 203.521,231.322 201.149,230.149 199.809 C 227.883 197.219,227.152 196.606,225.944 196.280 C 224.500 195.891,181.960 196.060,182.262 196.453 C 186.870 202.457,239.909 261.013,245.934 266.748 L 246.600 267.382 248.642 265.758 C 251.630 263.380,260.752 255.188,267.442 248.875 C 271.517 245.031,271.407 245.057,283.691 245.025 C 293.773 244.999,294.315 244.951,296.344 243.918 C 300.523 241.790,304.548 234.315,305.584 226.758 C 306.019 223.585,306.005 129.470,305.569 126.172 C 304.396 117.299,299.260 110.236,292.773 108.575 C 290.687 108.041,296.132 108.070,210.889 108.145 " stroke="none" fill="#04d313" fill-rule="evenodd"></path><path id="path1" d="M327.104 55.713 C 328.590 59.812,325.925 65.079,321.156 67.468 C 319.168 68.465,316.251 68.474,313.817 67.491 C 313.182 67.234,312.692 67.048,312.728 67.076 C 318.672 71.782,329.335 82.729,335.858 90.820 C 367.010 129.460,380.155 179.952,371.869 229.137 C 359.590 302.022,302.022 359.590,229.137 371.869 C 210.380 375.029,189.620 375.029,170.863 371.869 C 137.917 366.318,106.460 350.927,82.324 328.547 C 76.377 323.033,68.187 325.037,66.280 332.474 C 65.022 337.379,66.502 339.655,76.270 347.836 C 145.797 406.068,246.834 407.882,318.359 352.182 C 412.606 278.788,418.162 138.835,330.050 57.697 C 326.607 54.526,326.696 54.586,327.104 55.713 M105.566 115.053 C 101.675 115.424,100.114 116.115,97.654 118.555 C 94.312 121.870,91.605 127.171,90.722 132.130 C 90.256 134.743,90.275 231.966,90.741 235.156 C 91.801 242.407,96.837 249.984,101.716 251.669 C 104.448 252.612,115.394 252.838,134.473 252.345 C 141.453 252.164,149.490 252.166,170.508 252.352 C 195.416 252.573,215.653 252.520,222.980 252.214 L 225.940 252.091 222.501 247.969 C 220.610 245.702,218.120 242.837,216.968 241.602 C 213.487 237.870,202.326 225.580,201.092 224.119 C 199.779 222.565,199.175 221.996,198.340 221.523 C 197.797 221.216,195.264 221.184,163.867 221.088 C 133.259 220.994,129.881 220.953,128.952 220.665 C 124.369 219.244,123.774 216.818,124.207 201.334 C 124.337 196.679,124.493 183.489,124.554 172.023 C 124.681 147.995,124.434 150.589,126.841 147.961 L 128.194 146.484 149.155 146.484 C 160.684 146.484,170.117 146.437,170.117 146.380 C 170.117 146.323,165.173 140.766,159.131 134.031 C 153.088 127.297,146.826 120.316,145.215 118.518 L 142.285 115.250 138.281 115.158 C 129.060 114.947,107.408 114.877,105.566 115.053 M165.679 257.215 C 164.608 257.479,164.116 257.941,163.688 259.083 C 163.021 260.867,162.818 260.758,166.718 260.698 L 170.154 260.645 170.621 259.180 C 170.878 258.374,171.090 257.659,171.091 257.591 C 171.093 257.523,170.413 257.411,169.580 257.342 C 168.748 257.273,167.671 257.181,167.188 257.138 C 166.704 257.095,166.025 257.130,165.679 257.215 M118.994 257.377 L 115.429 257.431 114.979 258.159 C 114.732 258.559,114.285 259.310,113.988 259.826 L 113.446 260.766 117.160 260.705 L 120.874 260.645 121.479 260.064 C 121.988 259.576,122.874 257.486,122.625 257.359 C 122.589 257.340,120.954 257.348,118.994 257.377 M125.684 257.408 C 124.457 257.704,122.979 259.033,122.667 260.119 L 122.488 260.742 126.432 260.742 L 130.375 260.742 131.093 259.131 L 131.811 257.520 130.114 257.394 C 127.890 257.229,126.406 257.234,125.684 257.408 M134.237 257.430 C 133.510 257.655,132.553 258.728,132.034 259.898 L 131.672 260.714 132.964 260.853 C 134.438 261.011,137.645 260.838,138.696 260.545 C 139.326 260.369,140.905 257.832,140.583 257.511 C 140.406 257.333,134.779 257.261,134.237 257.430 M182.813 257.393 C 181.486 257.681,181.123 258.082,180.984 259.412 C 180.915 260.071,180.898 260.651,180.947 260.700 C 181.235 260.988,186.484 260.818,187.326 260.492 L 188.226 260.145 188.347 258.845 C 188.414 258.129,188.432 257.508,188.387 257.463 C 188.230 257.306,183.488 257.247,182.813 257.393 M203.763 257.410 C 202.700 257.583,202.750 257.501,202.689 259.192 L 202.637 260.645 204.762 260.811 C 208.924 261.137,210.215 260.720,210.012 259.116 C 209.802 257.465,207.419 256.814,203.763 257.410 M221.511 257.426 C 220.207 257.699,219.967 258.270,220.434 259.989 C 220.602 260.607,221.488 260.754,224.711 260.698 L 227.832 260.645 227.666 259.404 C 227.500 258.165,227.499 258.163,226.592 257.757 C 225.563 257.296,222.945 257.126,221.511 257.426 M141.619 258.685 C 140.580 260.976,140.252 260.742,144.493 260.742 L 148.193 260.742 148.773 259.082 L 149.354 257.422 145.773 257.422 L 142.191 257.422 141.619 258.685 M154.623 259.027 C 154.012 260.982,153.632 260.762,157.604 260.753 C 161.844 260.743,161.785 260.773,162.096 258.476 L 162.239 257.422 158.682 257.422 L 155.125 257.422 154.623 259.027 M172.757 258.896 C 172.098 260.703,171.743 260.498,175.808 260.661 L 179.244 260.799 179.373 259.843 C 179.444 259.317,179.552 258.557,179.612 258.154 L 179.722 257.422 176.508 257.422 L 173.295 257.422 172.757 258.896 M194.146 258.838 C 194.007 259.617,193.852 260.364,193.801 260.498 C 193.729 260.688,194.557 260.742,197.551 260.742 L 201.394 260.742 201.342 259.208 L 201.289 257.673 198.954 257.547 C 197.669 257.478,196.119 257.422,195.508 257.422 L 194.398 257.422 194.146 258.838 M211.617 258.061 C 211.352 259.474,211.568 260.407,212.207 260.603 C 212.974 260.839,218.945 260.954,218.945 260.733 C 218.945 260.640,218.849 259.913,218.730 259.118 L 218.516 257.674 216.454 257.548 C 215.320 257.479,213.795 257.422,213.064 257.422 L 211.736 257.422 211.617 258.061 M271.531 257.861 C 271.580 257.996,271.830 258.699,272.087 259.424 L 272.555 260.742 276.231 260.742 L 279.907 260.742 279.358 259.731 C 278.378 257.928,277.629 257.617,274.257 257.617 C 272.089 257.617,271.463 257.673,271.531 257.861 M280.078 257.696 C 280.078 257.739,280.335 258.376,280.648 259.112 L 281.218 260.449 284.799 260.547 C 288.991 260.661,288.626 260.748,288.176 259.748 C 287.750 258.805,286.927 258.130,285.840 257.833 C 285.121 257.637,280.078 257.516,280.078 257.696 M289.060 258.390 C 289.362 259.443,289.907 260.139,290.668 260.444 C 291.469 260.764,300.953 260.862,303.027 260.571 L 304.004 260.434 302.806 259.816 C 300.426 258.586,296.060 257.813,291.508 257.813 L 288.894 257.813 289.060 258.390 M111.168 264.349 C 109.327 264.767,108.278 265.506,107.831 266.699 L 107.465 267.676 109.641 267.738 C 110.837 267.772,112.721 267.742,113.826 267.670 L 115.835 267.540 116.600 266.019 L 117.364 264.498 116.819 264.389 C 115.382 264.102,112.351 264.080,111.168 264.349 M239.912 264.404 C 239.964 264.592,240.061 265.186,240.128 265.723 C 240.399 267.906,240.291 267.773,241.812 267.773 C 243.367 267.773,243.432 267.670,242.759 266.279 C 242.214 265.152,239.653 263.466,239.912 264.404 M253.605 264.430 C 253.161 264.631,252.285 265.376,251.604 266.130 C 250.078 267.821,250.108 267.839,254.395 267.858 L 257.520 267.871 257.450 267.090 C 257.235 264.668,255.588 263.529,253.605 264.430 M258.400 264.697 C 258.404 267.516,260.112 268.425,264.602 268.002 C 265.954 267.875,267.098 267.733,267.144 267.687 C 267.310 267.521,266.255 265.493,265.634 264.786 L 264.999 264.063 261.699 264.063 L 258.398 264.063 258.400 264.697 M90.918 264.493 C 89.819 264.877,87.891 266.737,87.891 267.412 C 87.891 267.503,89.802 267.575,92.139 267.571 L 96.387 267.563 97.036 266.680 C 97.600 265.914,98.242 264.680,98.242 264.362 C 98.242 264.167,91.506 264.288,90.918 264.493 M98.762 265.778 L 97.621 267.285 98.664 267.412 C 99.238 267.482,101.061 267.548,102.716 267.559 L 105.724 267.578 106.442 266.846 C 106.837 266.443,107.373 265.968,107.633 265.791 L 108.105 265.469 107.694 264.912 L 107.282 264.355 103.592 264.313 L 99.902 264.270 98.762 265.778 M118.164 265.770 L 116.957 267.282 117.561 267.405 C 118.240 267.544,122.270 267.670,124.248 267.615 C 125.474 267.580,125.559 267.548,125.743 267.041 C 125.850 266.746,126.165 265.999,126.443 265.381 L 126.948 264.258 123.160 264.258 L 119.371 264.258 118.164 265.770 M127.590 265.905 L 126.774 267.552 127.889 267.694 C 129.893 267.950,133.449 267.897,133.984 267.603 C 135.064 267.009,135.777 266.086,136.144 264.806 L 136.301 264.258 132.354 264.258 L 128.407 264.258 127.590 265.905 M138.857 264.400 L 137.967 264.471 137.236 265.950 C 136.321 267.799,136.102 267.676,140.308 267.676 C 144.884 267.676,144.838 267.701,145.410 264.893 L 145.539 264.258 142.642 264.293 C 141.049 264.312,139.346 264.360,138.857 264.400 M147.090 264.613 C 146.854 265.058,145.898 267.422,145.898 267.563 C 145.898 267.625,147.733 267.650,149.976 267.620 L 154.055 267.563 154.495 266.350 C 154.738 265.683,154.975 265.032,155.023 264.904 C 155.227 264.363,147.377 264.074,147.090 264.613 M157.472 264.466 C 156.636 264.721,155.333 267.118,155.786 267.569 C 156.020 267.802,163.375 267.678,163.803 267.433 C 164.237 267.185,164.688 264.818,164.363 264.493 C 164.145 264.275,158.175 264.252,157.472 264.466 M166.515 264.436 C 166.325 264.742,165.430 267.179,165.430 267.387 C 165.430 267.505,166.914 267.578,169.311 267.578 L 173.192 267.578 173.320 266.748 C 173.390 266.292,173.498 265.642,173.558 265.304 L 173.668 264.691 170.770 264.565 C 169.175 264.496,167.592 264.396,167.252 264.342 C 166.911 264.289,166.579 264.331,166.515 264.436 M195.105 264.560 L 194.214 264.834 194.024 266.206 L 193.835 267.578 197.292 267.578 C 199.194 267.578,200.888 267.631,201.058 267.697 C 201.498 267.865,201.483 265.882,201.038 264.948 L 200.709 264.258 198.352 264.271 C 196.919 264.280,195.647 264.393,195.105 264.560 M204.500 264.430 C 203.765 264.561,203.571 264.925,203.535 266.237 C 203.506 267.290,204.119 267.613,206.363 267.730 C 209.790 267.910,210.972 267.420,210.798 265.893 L 210.706 265.087 208.624 264.672 C 206.528 264.254,205.740 264.208,204.500 264.430 M224.023 264.446 C 221.974 264.831,221.311 266.015,222.513 267.144 C 223.096 267.693,229.890 267.913,229.875 267.383 C 229.829 265.846,229.368 264.757,228.704 264.617 C 227.529 264.369,224.937 264.274,224.023 264.446 M175.295 264.697 C 174.985 265.607,174.609 267.448,174.712 267.551 C 174.913 267.751,181.680 267.662,182.324 267.451 C 182.887 267.266,182.912 267.208,182.967 265.982 L 183.024 264.705 181.991 264.581 C 180.056 264.348,175.386 264.430,175.295 264.697 M184.582 265.771 C 184.459 266.497,184.312 267.244,184.256 267.432 C 184.131 267.847,189.131 267.906,191.016 267.510 L 192.090 267.285 192.188 265.992 L 192.285 264.699 190.546 264.576 C 189.590 264.509,187.907 264.453,186.806 264.453 L 184.806 264.453 184.582 265.771 M213.086 265.981 L 213.086 267.535 216.748 267.618 C 218.762 267.663,220.430 267.690,220.454 267.677 C 220.614 267.590,220.041 265.080,219.807 264.844 C 219.579 264.612,218.842 264.538,216.302 264.489 L 213.086 264.427 213.086 265.981 M285.237 265.273 C 285.316 265.766,285.653 266.467,286.084 267.031 L 286.799 267.969 289.466 267.969 C 290.933 267.969,292.532 267.914,293.019 267.847 L 293.905 267.726 293.612 266.866 C 292.946 264.911,291.838 264.453,287.779 264.453 L 285.106 264.453 285.237 265.273 M293.946 264.582 C 293.963 267.071,295.649 267.969,300.310 267.969 L 303.283 267.969 303.184 267.139 C 302.969 265.338,301.195 264.574,297.021 264.485 C 295.330 264.449,293.946 264.492,293.946 264.582 M303.857 264.595 C 302.697 264.717,302.784 265.851,304.023 266.763 C 305.548 267.885,306.136 268.058,308.398 268.048 C 311.447 268.035,311.914 267.910,311.914 267.110 C 311.914 265.128,308.613 264.098,303.857 264.595 M275.977 264.912 C 275.977 267.363,277.834 268.282,282.317 268.049 L 284.931 267.914 284.121 266.281 L 283.311 264.648 279.644 264.648 C 276.694 264.648,275.977 264.700,275.977 264.912 M88.035 269.170 C 85.420 269.469,84.567 269.907,83.218 271.643 L 82.051 273.145 89.583 273.196 L 97.115 273.247 97.923 272.338 C 98.900 271.238,99.144 270.810,99.315 269.900 L 99.446 269.203 96.176 269.074 C 92.185 268.917,90.024 268.942,88.035 269.170 M112.861 269.157 C 111.233 269.339,108.398 271.830,108.398 273.078 C 108.398 273.168,110.320 273.242,112.669 273.242 L 116.939 273.242 117.828 272.291 C 118.608 271.457,119.136 270.368,119.140 269.584 C 119.141 269.158,115.226 268.892,112.861 269.157 M120.044 270.801 C 119.465 271.660,118.931 272.561,118.857 272.803 L 118.724 273.242 123.022 273.242 L 127.320 273.242 128.393 271.338 L 129.466 269.434 128.844 269.390 C 128.502 269.366,126.620 269.322,124.660 269.293 L 121.098 269.238 120.044 270.801 M134.180 269.294 L 130.957 269.359 130.286 270.764 C 129.917 271.536,129.503 272.411,129.366 272.709 L 129.117 273.250 133.331 273.197 L 137.544 273.145 138.302 271.191 C 138.719 270.117,139.061 269.216,139.061 269.189 C 139.062 269.163,138.689 269.160,138.232 269.184 C 137.776 269.208,135.952 269.258,134.180 269.294 M141.629 269.492 C 140.952 269.834,139.774 271.526,139.546 272.481 C 139.392 273.130,140.120 273.238,144.650 273.240 L 147.796 273.242 148.312 271.322 C 148.596 270.265,148.828 269.342,148.828 269.271 C 148.828 268.953,142.296 269.154,141.629 269.492 M150.297 270.933 C 149.895 271.934,149.522 272.864,149.469 272.998 C 149.393 273.189,150.307 273.242,153.654 273.242 L 157.936 273.242 158.270 271.826 C 158.454 271.047,158.654 270.223,158.714 269.994 C 158.820 269.586,158.761 269.574,155.827 269.450 C 154.180 269.380,152.426 269.275,151.931 269.217 L 151.029 269.111 150.297 270.933 M160.827 269.396 C 160.764 269.560,160.464 270.493,160.161 271.469 L 159.610 273.242 163.652 273.242 L 167.695 273.242 168.148 271.729 C 168.398 270.896,168.642 270.073,168.691 269.900 C 168.770 269.624,168.403 269.569,165.690 269.453 C 163.989 269.381,162.225 269.271,161.770 269.209 C 161.134 269.123,160.915 269.166,160.827 269.396 M170.779 269.434 C 170.741 269.541,170.412 270.434,170.050 271.417 L 169.390 273.206 171.798 273.345 C 174.185 273.483,175.237 273.418,176.973 273.028 L 177.872 272.826 178.078 271.130 C 178.192 270.197,178.269 269.417,178.250 269.397 C 178.099 269.241,170.835 269.276,170.779 269.434 M182.987 269.286 L 180.329 269.347 180.111 270.660 C 179.992 271.382,179.836 272.258,179.766 272.607 L 179.639 273.242 183.667 273.242 L 187.695 273.242 187.695 271.500 C 187.695 270.542,187.749 269.619,187.814 269.450 C 187.915 269.187,187.761 269.147,186.788 269.183 C 186.159 269.207,184.449 269.253,182.987 269.286 M241.505 270.410 C 241.676 271.992,242.298 273.211,243.284 273.894 L 244.088 274.451 247.337 274.309 L 250.586 274.167 250.586 273.419 C 250.586 272.506,249.966 270.803,249.360 270.049 L 248.912 269.493 245.145 269.365 L 241.379 269.238 241.505 270.410 M289.600 269.271 C 288.811 269.366,288.514 270.362,289.123 270.868 C 289.264 270.985,289.769 271.655,290.245 272.357 L 291.110 273.633 294.885 273.633 L 298.659 273.633 298.524 273.193 C 297.493 269.854,294.747 268.646,289.600 269.271 M308.917 269.286 L 307.580 269.355 307.709 269.882 C 307.950 270.862,308.753 271.963,310.924 274.294 C 312.113 275.570,313.086 276.691,313.086 276.784 C 313.086 277.137,312.676 276.924,311.722 276.077 C 310.438 274.937,310.277 274.902,306.217 274.902 C 302.153 274.902,302.338 274.806,303.189 276.494 C 304.507 279.105,305.156 279.482,308.792 279.748 C 312.712 280.035,313.736 279.766,314.600 278.223 C 314.808 277.852,314.861 277.874,315.648 278.667 C 317.061 280.090,318.715 280.324,323.379 279.758 L 324.395 279.635 323.994 278.831 C 323.756 278.355,321.909 276.343,319.462 273.897 C 314.340 268.776,314.814 268.983,308.917 269.286 M100.942 269.678 C 100.782 269.866,100.147 270.745,99.531 271.631 L 98.411 273.242 102.770 273.235 L 107.129 273.227 108.229 271.407 L 109.329 269.586 107.564 269.461 C 104.020 269.210,101.263 269.300,100.942 269.678 M190.039 270.089 C 190.039 270.502,189.983 271.381,189.914 272.042 L 189.788 273.242 193.722 273.242 L 197.656 273.242 197.656 271.289 L 197.656 269.336 193.848 269.336 L 190.039 269.336 190.039 270.089 M200.000 270.354 C 200.000 270.946,199.944 271.838,199.876 272.336 L 199.752 273.242 203.585 273.242 L 207.418 273.242 207.295 271.436 C 207.227 270.442,207.147 269.599,207.116 269.562 C 207.086 269.525,205.472 269.446,203.530 269.386 L 200.000 269.277 200.000 270.354 M209.521 271.119 C 209.576 272.125,209.632 272.961,209.644 272.976 C 209.657 272.991,211.408 273.079,213.534 273.172 L 217.399 273.340 217.283 272.266 C 216.967 269.331,217.455 269.626,212.572 269.421 L 209.421 269.288 209.521 271.119 M219.365 272.018 L 219.434 274.707 215.751 274.760 L 212.069 274.813 212.175 275.249 C 212.233 275.488,212.342 276.541,212.417 277.588 L 212.554 279.492 222.276 279.492 C 227.624 279.492,232.138 279.546,232.308 279.611 C 233.068 279.902,232.480 275.838,231.104 271.289 L 230.543 269.434 224.920 269.382 L 219.296 269.330 219.365 272.018 M251.248 270.166 C 251.317 270.623,251.701 271.655,252.103 272.461 L 252.832 273.926 254.297 274.050 C 255.103 274.118,256.850 274.220,258.180 274.277 L 260.598 274.380 260.485 273.285 C 260.413 272.589,260.128 271.723,259.701 270.909 L 259.031 269.629 257.982 269.502 C 257.406 269.432,255.626 269.366,254.028 269.355 L 251.122 269.336 251.248 270.166 M261.054 270.524 C 261.908 274.186,263.327 274.840,269.211 274.285 L 270.550 274.158 270.426 273.223 C 270.010 270.087,268.998 269.459,264.223 269.369 L 260.770 269.305 261.054 270.524 M279.312 269.775 C 279.333 270.400,279.682 271.226,280.469 272.516 L 281.152 273.636 285.107 273.613 C 289.584 273.587,289.567 273.594,288.620 272.036 C 288.380 271.641,287.920 270.872,287.598 270.327 L 287.012 269.336 283.154 269.336 L 279.297 269.336 279.312 269.775 M298.047 269.538 C 298.047 270.039,298.702 271.215,299.556 272.247 L 300.488 273.374 304.375 273.506 C 306.513 273.579,308.301 273.600,308.349 273.552 C 308.635 273.267,308.016 272.067,307.012 270.959 C 306.378 270.259,305.859 269.608,305.859 269.512 C 305.859 269.413,304.135 269.336,301.953 269.336 C 299.398 269.336,298.047 269.406,298.047 269.538 M83.559 274.760 L 79.324 274.812 78.934 275.443 C 78.720 275.790,77.937 276.651,77.195 277.357 C 74.797 279.636,74.998 279.690,85.822 279.686 C 94.033 279.683,94.886 279.367,96.761 275.629 L 97.278 274.597 92.536 274.652 C 89.927 274.682,85.887 274.731,83.559 274.760 M100.381 274.875 C 98.389 275.413,96.094 277.777,96.094 279.291 C 96.094 279.423,97.493 279.492,100.155 279.492 L 104.216 279.492 105.008 278.662 C 106.151 277.465,106.789 276.549,107.107 275.648 L 107.386 274.858 106.085 274.735 C 104.068 274.544,101.361 274.611,100.381 274.875 M134.264 274.760 L 130.148 274.812 129.234 276.577 C 128.732 277.547,128.320 278.600,128.320 278.916 L 128.320 279.492 132.409 279.492 L 136.497 279.492 136.875 278.955 C 137.727 277.746,138.843 274.890,138.514 274.760 C 138.440 274.731,136.527 274.731,134.264 274.760 M171.202 275.000 C 171.157 275.161,170.979 276.040,170.807 276.953 C 170.634 277.866,170.451 278.811,170.399 279.053 L 170.305 279.492 174.703 279.492 C 177.122 279.492,179.102 279.460,179.102 279.422 C 179.102 279.383,179.285 278.453,179.509 277.355 C 179.733 276.257,179.866 275.309,179.805 275.248 C 179.501 274.944,171.284 274.707,171.202 275.000 M196.065 274.760 L 192.032 274.812 191.906 276.420 C 191.837 277.304,191.734 278.349,191.677 278.742 L 191.573 279.457 195.640 279.528 C 197.877 279.567,199.726 279.593,199.748 279.586 C 199.830 279.559,200.232 275.014,200.166 274.863 C 200.128 274.777,198.283 274.731,196.065 274.760 M202.979 274.741 L 201.953 274.825 201.953 277.279 C 201.953 279.729,201.954 279.733,202.393 279.615 C 202.634 279.551,204.480 279.496,206.494 279.495 L 210.156 279.492 210.156 277.353 L 210.156 275.214 209.424 274.994 C 208.640 274.758,204.669 274.603,202.979 274.741 M108.507 275.905 C 108.191 276.510,107.642 277.313,107.287 277.690 C 106.866 278.136,106.641 278.570,106.641 278.934 L 106.641 279.492 110.935 279.492 L 115.229 279.492 116.111 278.369 C 117.018 277.215,117.498 276.350,117.780 275.367 L 117.941 274.805 113.512 274.805 L 109.082 274.806 108.507 275.905 M118.578 276.798 C 116.839 279.698,116.617 279.492,121.484 279.492 C 123.740 279.492,125.648 279.514,125.724 279.541 C 126.090 279.670,127.943 276.708,128.320 275.391 L 128.488 274.805 124.131 274.805 L 119.773 274.805 118.578 276.798 M139.621 276.421 C 139.229 277.304,138.852 278.357,138.782 278.760 L 138.654 279.492 142.935 279.492 L 147.217 279.492 148.197 277.295 L 149.177 275.098 147.880 274.975 C 147.166 274.908,145.176 274.845,143.457 274.834 L 140.332 274.815 139.621 276.421 M150.050 277.070 C 149.612 278.348,149.269 279.411,149.289 279.431 C 149.326 279.470,155.231 279.526,156.959 279.505 L 157.961 279.492 158.773 277.318 C 159.219 276.122,159.552 275.112,159.514 275.074 C 159.475 275.035,157.509 274.945,155.146 274.874 L 150.848 274.745 150.050 277.070 M161.260 275.609 C 160.387 277.977,159.987 279.192,160.057 279.263 C 160.100 279.306,162.008 279.387,164.296 279.443 L 168.457 279.544 169.018 277.361 C 169.326 276.160,169.546 275.146,169.506 275.107 C 169.466 275.068,167.666 274.972,165.505 274.895 L 161.575 274.753 161.260 275.609 M181.629 275.665 C 181.419 276.138,181.192 277.184,181.124 277.989 L 181.001 279.453 182.723 279.596 C 184.469 279.742,188.229 279.617,188.990 279.389 C 189.385 279.270,189.844 277.152,189.844 275.452 C 189.844 274.908,189.136 274.809,185.194 274.807 L 182.009 274.805 181.629 275.665 M283.090 275.543 C 283.481 276.649,283.923 277.473,284.809 278.744 L 285.581 279.851 289.714 279.743 C 291.988 279.683,293.876 279.611,293.911 279.581 C 294.118 279.407,292.720 277.126,291.782 276.106 L 290.674 274.902 286.745 274.833 L 282.815 274.764 283.090 275.543 M293.145 275.640 C 294.323 278.387,295.894 279.671,298.461 279.983 C 299.561 280.117,303.908 279.744,303.904 279.516 C 303.899 279.152,302.594 277.283,301.615 276.237 L 300.488 275.033 296.629 274.897 L 292.769 274.762 293.145 275.640 M210.645 280.869 C 208.496 280.942,206.593 281.014,206.415 281.028 C 206.075 281.056,206.072 281.299,206.373 284.743 L 206.482 285.989 220.477 285.846 C 228.175 285.767,234.489 285.687,234.510 285.669 C 234.845 285.367,233.393 281.348,232.901 281.213 C 231.219 280.751,219.441 280.569,210.645 280.869 M256.250 281.211 C 256.250 281.952,256.774 283.678,257.335 284.785 C 257.882 285.866,258.251 285.938,263.298 285.938 L 266.382 285.938 266.286 285.205 C 266.233 284.802,265.773 283.638,265.265 282.617 L 264.340 280.762 260.295 280.709 L 256.250 280.656 256.250 281.211 M74.808 281.088 C 71.773 281.522,69.336 283.653,69.336 285.875 C 69.336 285.910,74.460 285.938,80.724 285.938 L 92.112 285.938 93.789 283.545 L 95.466 281.152 94.462 281.025 C 92.920 280.830,76.242 280.884,74.808 281.088 M112.369 281.005 L 109.210 281.064 108.216 282.152 C 107.130 283.341,106.351 284.562,106.145 285.400 L 106.012 285.938 110.418 285.938 L 114.824 285.938 115.713 284.692 C 116.531 283.545,117.578 281.500,117.578 281.049 C 117.578 280.945,117.117 280.879,116.553 280.903 C 115.989 280.927,114.106 280.973,112.369 281.005 M122.987 281.048 L 119.705 281.152 119.137 282.129 C 118.134 283.853,117.582 285.047,117.580 285.498 L 117.578 285.938 121.635 285.938 L 125.692 285.938 126.415 285.342 C 127.188 284.705,128.197 282.821,128.424 281.592 L 128.559 280.859 127.414 280.901 C 126.785 280.924,124.792 280.990,122.987 281.048 M140.795 282.558 C 140.405 283.504,140.024 284.651,139.948 285.107 L 139.809 285.938 144.205 285.938 L 148.600 285.938 149.398 283.545 C 149.836 282.229,150.195 281.106,150.195 281.050 C 150.195 280.994,148.240 280.923,145.850 280.893 L 141.504 280.839 140.795 282.558 M152.435 281.104 C 152.385 281.238,152.045 282.386,151.680 283.656 L 151.017 285.965 155.521 285.902 L 160.025 285.840 160.571 283.496 C 160.872 282.207,161.121 281.086,161.125 281.006 C 161.139 280.734,152.538 280.831,152.435 281.104 M164.648 280.989 L 163.378 281.070 162.780 283.377 L 162.182 285.684 165.106 285.811 C 166.715 285.881,168.621 285.938,169.343 285.938 L 170.655 285.938 171.253 283.549 C 171.582 282.236,171.830 281.140,171.804 281.114 C 171.705 281.015,165.853 280.912,164.648 280.989 M177.591 281.006 C 173.470 281.073,173.976 280.709,173.623 283.855 C 173.504 284.912,173.452 285.822,173.507 285.877 C 173.758 286.128,180.587 285.997,181.348 285.727 L 182.129 285.449 182.358 283.691 C 182.734 280.811,182.741 280.852,181.885 280.904 C 181.482 280.928,179.550 280.974,177.591 281.006 M184.889 281.396 C 184.832 281.692,184.734 282.505,184.670 283.203 C 184.606 283.901,184.506 284.802,184.447 285.205 L 184.341 285.938 188.629 285.938 L 192.918 285.938 193.050 284.326 C 193.122 283.440,193.233 282.297,193.296 281.787 L 193.410 280.859 189.201 280.859 L 184.992 280.859 184.889 281.396 M198.779 281.005 L 195.703 281.065 195.703 283.501 L 195.703 285.938 199.707 285.938 L 203.711 285.938 203.711 283.398 L 203.711 280.859 202.783 280.903 C 202.273 280.927,200.471 280.973,198.779 281.005 M96.921 282.321 C 96.283 283.017,95.479 284.116,95.135 284.762 L 94.508 285.938 98.774 285.938 L 103.040 285.938 104.127 284.814 C 105.365 283.535,105.939 282.746,106.356 281.750 L 106.646 281.055 102.364 281.055 L 98.081 281.055 96.921 282.321 M130.222 282.413 C 129.354 283.768,128.729 285.435,128.990 285.696 C 129.066 285.772,130.953 285.867,133.183 285.907 L 137.237 285.981 138.142 284.152 C 138.639 283.147,139.101 282.039,139.167 281.689 L 139.289 281.055 135.190 281.055 L 131.091 281.055 130.222 282.413 M321.870 281.118 C 321.814 281.178,321.092 281.245,320.267 281.267 L 318.766 281.307 319.254 281.913 C 319.523 282.247,320.634 283.662,321.724 285.059 C 326.200 290.796,328.586 292.450,330.607 291.218 C 334.588 288.791,329.694 281.422,323.896 281.112 C 322.838 281.056,321.927 281.059,321.870 281.118 M287.109 281.381 C 287.109 281.681,288.276 283.955,288.921 284.912 L 289.743 286.133 294.188 286.133 C 296.934 286.133,298.633 286.060,298.633 285.943 C 298.633 285.403,297.599 283.545,296.692 282.455 L 295.662 281.218 291.386 281.273 C 289.034 281.304,287.109 281.352,287.109 281.381 M297.852 281.440 C 297.852 282.516,299.605 284.947,300.835 285.574 C 302.649 286.500,309.338 286.581,309.069 285.674 C 308.457 283.607,306.431 281.528,304.883 281.377 C 302.870 281.180,297.852 281.225,297.852 281.440 M308.337 282.263 C 310.267 285.820,313.271 287.062,317.967 286.244 C 320.392 285.822,320.373 285.960,318.351 283.441 L 316.591 281.250 312.190 281.250 L 307.788 281.250 308.337 282.263 M121.191 287.115 C 106.442 287.278,107.126 287.210,105.848 288.642 C 104.880 289.727,103.516 292.130,103.516 292.751 C 103.516 293.041,106.761 293.062,143.053 293.017 L 182.590 292.967 183.001 291.868 C 183.411 290.771,183.628 288.055,183.329 287.756 C 183.033 287.460,177.660 287.314,159.961 287.122 C 140.516 286.911,139.580 286.911,121.191 287.115 M293.288 287.060 L 291.360 287.124 291.484 287.751 C 291.757 289.132,293.224 291.665,294.108 292.281 L 294.955 292.871 304.888 292.927 L 314.821 292.982 314.710 292.243 C 314.642 291.791,314.354 291.239,313.967 290.820 C 313.620 290.444,312.963 289.623,312.508 288.996 C 311.538 287.659,311.026 287.401,308.775 287.119 C 307.296 286.934,298.135 286.899,293.288 287.060 M70.231 287.303 C 67.912 287.597,68.011 287.527,68.178 288.752 C 68.511 291.207,70.176 292.355,73.895 292.692 L 75.307 292.820 76.793 291.239 C 77.611 290.370,78.512 289.195,78.794 288.628 L 79.308 287.598 78.668 287.453 C 77.643 287.221,71.709 287.116,70.231 287.303 M96.289 287.298 C 93.415 287.672,91.642 288.856,90.624 291.082 C 89.822 292.834,89.719 293.254,90.130 293.096 C 90.312 293.026,92.689 292.969,95.410 292.969 L 100.359 292.969 101.456 291.966 C 102.628 290.895,103.328 289.849,103.925 288.280 L 104.295 287.305 103.253 287.305 C 102.679 287.305,101.163 287.266,99.884 287.219 C 98.605 287.172,96.987 287.208,96.289 287.298 M210.392 287.344 C 209.453 287.515,209.371 287.571,209.495 287.956 C 209.570 288.188,209.869 289.326,210.160 290.485 C 210.451 291.643,210.738 292.639,210.798 292.699 C 211.292 293.193,219.541 293.402,219.521 292.920 C 219.516 292.786,219.359 291.533,219.174 290.137 L 218.838 287.598 217.768 287.372 C 216.477 287.100,211.828 287.082,210.392 287.344 M313.439 287.646 C 313.648 287.942,314.171 288.887,314.602 289.746 C 315.956 292.445,317.459 292.969,323.849 292.969 C 326.597 292.969,326.692 292.368,324.381 289.628 C 323.801 288.941,323.127 288.093,322.881 287.744 L 322.434 287.109 317.747 287.109 L 313.059 287.109 313.439 287.646 M81.375 288.037 C 81.093 288.440,80.377 289.193,79.784 289.712 C 78.716 290.645,78.223 291.362,77.919 292.420 L 77.762 292.969 81.117 292.989 C 85.366 293.016,85.449 293.010,86.621 292.634 C 88.238 292.114,90.313 289.750,90.911 287.744 L 91.042 287.305 86.466 287.305 L 81.889 287.305 81.375 288.037 M186.796 287.448 L 185.799 287.518 185.574 289.999 C 185.450 291.364,185.349 292.593,185.350 292.730 C 185.351 292.927,186.424 292.976,190.405 292.962 L 195.458 292.945 195.581 292.051 C 195.648 291.559,195.703 290.290,195.703 289.231 L 195.703 287.305 191.748 287.341 C 189.573 287.361,187.344 287.409,186.796 287.448 M198.674 290.151 L 198.759 292.998 203.033 292.976 C 205.383 292.964,207.324 292.936,207.347 292.913 C 207.370 292.890,207.339 291.619,207.279 290.088 L 207.169 287.305 202.879 287.305 L 198.589 287.305 198.674 290.151 M221.150 287.842 C 221.208 288.137,221.368 289.412,221.506 290.674 L 221.756 292.969 228.972 292.969 L 236.189 292.969 236.065 291.638 C 235.948 290.382,235.459 288.625,234.971 287.714 C 234.755 287.310,234.658 287.305,227.898 287.305 L 221.045 287.305 221.150 287.842 M248.551 289.990 C 249.022 291.467,249.409 292.742,249.411 292.822 C 249.413 292.903,251.443 292.969,253.922 292.969 L 258.429 292.969 258.308 292.334 C 258.241 291.985,257.826 290.710,257.384 289.502 L 256.581 287.305 252.138 287.305 L 247.695 287.305 248.551 289.990 M258.691 287.683 C 258.745 287.851,259.222 289.087,259.749 290.430 L 260.708 292.871 265.358 292.812 C 267.916 292.779,270.038 292.723,270.074 292.687 C 270.110 292.651,269.629 291.421,269.005 289.954 L 267.871 287.288 263.231 287.333 C 259.125 287.373,258.602 287.413,258.691 287.683 M271.631 287.450 C 270.691 287.486,269.924 287.578,269.926 287.654 C 269.928 287.730,270.526 288.936,271.254 290.332 L 272.578 292.871 276.841 292.924 L 281.105 292.977 280.988 292.338 C 280.923 291.987,280.367 290.710,279.752 289.502 L 278.633 287.305 275.987 287.345 C 274.531 287.367,272.571 287.414,271.631 287.450 " stroke="none" fill="#0a0a0a" fill-rule="evenodd"></path><path id="path2" d="M111.670 114.786 C 111.912 114.833,112.307 114.833,112.549 114.786 C 112.791 114.740,112.593 114.702,112.109 114.702 C 111.626 114.702,111.428 114.740,111.670 114.786 M117.725 114.790 C 118.074 114.833,118.645 114.833,118.994 114.790 C 119.343 114.746,119.058 114.711,118.359 114.711 C 117.661 114.711,117.375 114.746,117.725 114.790 M128.564 114.978 C 128.752 115.028,129.060 115.028,129.248 114.978 C 129.436 114.929,129.282 114.889,128.906 114.889 C 128.530 114.889,128.376 114.929,128.564 114.978 M124.463 188.770 C 124.465 189.199,124.505 189.352,124.552 189.109 C 124.599 188.866,124.597 188.515,124.548 188.328 C 124.499 188.141,124.461 188.340,124.463 188.770 M124.095 208.496 C 124.095 209.570,124.128 209.985,124.168 209.417 C 124.207 208.850,124.207 207.971,124.167 207.464 C 124.127 206.958,124.094 207.422,124.095 208.496 M194.385 221.033 C 194.573 221.082,194.880 221.082,195.068 221.033 C 195.256 220.984,195.103 220.944,194.727 220.944 C 194.351 220.944,194.197 220.984,194.385 221.033 M141.943 252.291 C 142.400 252.333,143.147 252.333,143.604 252.291 C 144.060 252.250,143.687 252.217,142.773 252.217 C 141.860 252.217,141.487 252.250,141.943 252.291 M146.934 252.294 C 147.987 252.329,149.657 252.329,150.645 252.294 C 151.633 252.258,150.771 252.230,148.730 252.230 C 146.689 252.230,145.881 252.259,146.934 252.294 M174.658 252.486 C 175.061 252.528,175.720 252.528,176.123 252.486 C 176.526 252.444,176.196 252.409,175.391 252.409 C 174.585 252.409,174.255 252.444,174.658 252.486 M214.404 252.482 C 214.646 252.528,215.042 252.528,215.283 252.482 C 215.525 252.435,215.327 252.397,214.844 252.397 C 214.360 252.397,214.163 252.435,214.404 252.482 M123.196 252.677 C 123.439 252.724,123.790 252.722,123.977 252.673 C 124.164 252.624,123.965 252.586,123.535 252.588 C 123.105 252.590,122.953 252.630,123.196 252.677 M119.485 257.365 C 119.728 257.411,120.079 257.410,120.266 257.361 C 120.453 257.312,120.254 257.274,119.824 257.276 C 119.395 257.278,119.242 257.318,119.485 257.365 M156.497 257.367 C 156.794 257.412,157.233 257.410,157.473 257.364 C 157.714 257.318,157.471 257.281,156.934 257.282 C 156.396 257.284,156.200 257.322,156.497 257.367 M158.936 257.371 C 159.500 257.410,160.422 257.410,160.986 257.371 C 161.550 257.331,161.089 257.299,159.961 257.299 C 158.833 257.299,158.372 257.331,158.936 257.371 M173.782 257.365 C 174.025 257.411,174.376 257.410,174.563 257.361 C 174.750 257.312,174.551 257.274,174.121 257.276 C 173.691 257.278,173.539 257.318,173.782 257.365 M172.510 260.682 C 172.698 260.731,173.005 260.731,173.193 260.682 C 173.381 260.632,173.228 260.592,172.852 260.592 C 172.476 260.592,172.322 260.632,172.510 260.682 M166.650 260.886 C 167.161 260.926,167.996 260.926,168.506 260.886 C 169.016 260.846,168.599 260.813,167.578 260.813 C 166.558 260.813,166.140 260.846,166.650 260.886 M259.134 264.009 C 259.485 264.052,260.013 264.051,260.306 264.007 C 260.600 263.962,260.313 263.927,259.668 263.928 C 259.023 263.929,258.783 263.965,259.134 264.009 M96.045 264.204 C 96.394 264.247,96.965 264.247,97.314 264.204 C 97.664 264.160,97.378 264.125,96.680 264.125 C 95.981 264.125,95.696 264.160,96.045 264.204 M277.783 264.599 C 278.723 264.634,280.261 264.634,281.201 264.599 C 282.141 264.563,281.372 264.533,279.492 264.533 C 277.612 264.533,276.843 264.563,277.783 264.599 M151.714 267.721 C 152.174 267.763,152.877 267.762,153.277 267.720 C 153.677 267.678,153.301 267.644,152.441 267.645 C 151.582 267.646,151.255 267.680,151.714 267.721 M197.705 267.713 C 197.893 267.762,198.201 267.762,198.389 267.713 C 198.577 267.664,198.423 267.623,198.047 267.623 C 197.671 267.623,197.517 267.664,197.705 267.713 M224.173 267.720 C 224.524 267.763,225.052 267.762,225.345 267.718 C 225.639 267.673,225.352 267.638,224.707 267.639 C 224.063 267.640,223.822 267.676,224.173 267.720 M241.162 267.915 C 241.511 267.958,242.083 267.958,242.432 267.915 C 242.781 267.871,242.495 267.836,241.797 267.836 C 241.099 267.836,240.813 267.871,241.162 267.915 M124.072 269.275 C 124.260 269.324,124.568 269.324,124.756 269.275 C 124.944 269.226,124.790 269.186,124.414 269.186 C 124.038 269.186,123.884 269.226,124.072 269.275 M173.975 269.278 C 174.216 269.325,174.612 269.325,174.854 269.278 C 175.095 269.232,174.897 269.194,174.414 269.194 C 173.931 269.194,173.733 269.232,173.975 269.278 M191.169 269.285 C 191.736 269.324,192.615 269.324,193.122 269.284 C 193.628 269.244,193.164 269.211,192.090 269.212 C 191.016 269.212,190.601 269.245,191.169 269.285 M220.264 269.284 C 220.720 269.325,221.467 269.325,221.924 269.284 C 222.380 269.243,222.007 269.209,221.094 269.209 C 220.181 269.209,219.807 269.243,220.264 269.284 M261.275 269.282 C 261.622 269.325,262.237 269.325,262.642 269.283 C 263.047 269.241,262.764 269.206,262.012 269.205 C 261.260 269.204,260.928 269.238,261.275 269.282 M281.006 269.284 C 281.462 269.325,282.209 269.325,282.666 269.284 C 283.123 269.243,282.749 269.209,281.836 269.209 C 280.923 269.209,280.549 269.243,281.006 269.284 M299.658 269.286 C 300.491 269.322,301.853 269.322,302.686 269.286 C 303.518 269.249,302.837 269.219,301.172 269.219 C 299.507 269.219,298.826 269.249,299.658 269.286 M134.082 273.242 L 130.566 273.354 134.022 273.396 C 136.161 273.422,137.523 273.363,137.598 273.242 C 137.664 273.135,137.691 273.066,137.658 273.089 C 137.625 273.112,136.016 273.181,134.082 273.242 M82.764 273.385 C 83.220 273.426,83.967 273.426,84.424 273.385 C 84.880 273.344,84.507 273.310,83.594 273.310 C 82.681 273.310,82.307 273.344,82.764 273.385 M101.611 273.377 C 101.799 273.426,102.107 273.426,102.295 273.377 C 102.483 273.328,102.329 273.288,101.953 273.288 C 101.577 273.288,101.423 273.328,101.611 273.377 M103.467 273.383 C 103.816 273.427,104.387 273.427,104.736 273.383 C 105.085 273.340,104.800 273.305,104.102 273.305 C 103.403 273.305,103.118 273.340,103.467 273.383 M115.479 273.377 C 115.667 273.426,115.974 273.426,116.162 273.377 C 116.350 273.328,116.196 273.288,115.820 273.288 C 115.444 273.288,115.291 273.328,115.479 273.377 M121.631 273.383 C 121.980 273.427,122.551 273.427,122.900 273.383 C 123.250 273.340,122.964 273.305,122.266 273.305 C 121.567 273.305,121.282 273.340,121.631 273.383 M181.592 273.388 C 182.693 273.423,184.495 273.423,185.596 273.388 C 186.697 273.353,185.796 273.325,183.594 273.325 C 181.392 273.325,180.491 273.353,181.592 273.388 M192.432 273.388 C 193.372 273.423,194.910 273.423,195.850 273.388 C 196.790 273.352,196.021 273.323,194.141 273.323 C 192.261 273.323,191.492 273.352,192.432 273.388 M201.719 273.388 C 202.826 273.423,204.584 273.423,205.626 273.388 C 206.667 273.353,205.762 273.324,203.613 273.324 C 201.465 273.324,200.613 273.353,201.719 273.388 M301.127 273.579 C 301.478 273.623,302.005 273.622,302.298 273.577 C 302.592 273.532,302.305 273.497,301.660 273.498 C 301.016 273.499,300.775 273.536,301.127 273.579 M249.563 274.357 C 249.806 274.404,250.157 274.402,250.344 274.353 C 250.531 274.304,250.332 274.266,249.902 274.268 C 249.473 274.270,249.320 274.310,249.563 274.357 M110.498 274.751 C 110.847 274.794,111.418 274.794,111.768 274.751 C 112.117 274.707,111.831 274.672,111.133 274.672 C 110.435 274.672,110.149 274.707,110.498 274.751 M121.048 274.751 C 121.399 274.794,121.927 274.793,122.220 274.749 C 122.514 274.704,122.227 274.669,121.582 274.670 C 120.938 274.671,120.697 274.707,121.048 274.751 M196.533 274.749 C 196.829 274.794,197.312 274.794,197.607 274.749 C 197.903 274.705,197.661 274.668,197.070 274.668 C 196.479 274.668,196.238 274.705,196.533 274.749 M213.531 274.753 C 214.045 274.794,214.836 274.793,215.289 274.752 C 215.742 274.711,215.322 274.678,214.355 274.679 C 213.389 274.679,213.018 274.713,213.531 274.753 M306.595 274.751 C 306.946 274.794,307.474 274.793,307.767 274.749 C 308.061 274.704,307.773 274.669,307.129 274.670 C 306.484 274.671,306.244 274.707,306.595 274.751 M232.663 278.906 C 232.663 279.282,232.703 279.436,232.752 279.248 C 232.801 279.060,232.801 278.752,232.752 278.564 C 232.703 278.376,232.663 278.530,232.663 278.906 M103.076 279.630 C 103.318 279.677,103.713 279.677,103.955 279.630 C 104.197 279.583,103.999 279.545,103.516 279.545 C 103.032 279.545,102.834 279.583,103.076 279.630 M108.447 279.637 C 109.065 279.675,110.076 279.675,110.693 279.637 C 111.311 279.598,110.806 279.566,109.570 279.566 C 108.335 279.566,107.830 279.598,108.447 279.637 M123.196 279.630 C 123.439 279.677,123.790 279.675,123.977 279.626 C 124.164 279.577,123.965 279.539,123.535 279.541 C 123.105 279.544,122.953 279.584,123.196 279.630 M177.100 279.633 C 177.449 279.677,178.020 279.677,178.369 279.633 C 178.718 279.590,178.433 279.555,177.734 279.555 C 177.036 279.555,176.750 279.590,177.100 279.633 M218.311 279.637 C 219.197 279.674,220.647 279.674,221.533 279.637 C 222.419 279.601,221.694 279.572,219.922 279.572 C 218.149 279.572,217.424 279.601,218.311 279.637 M111.868 280.998 C 112.110 281.044,112.462 281.042,112.649 280.994 C 112.835 280.945,112.637 280.906,112.207 280.909 C 111.777 280.911,111.625 280.951,111.868 280.998 M123.291 280.994 C 123.479 281.043,123.787 281.043,123.975 280.994 C 124.163 280.945,124.009 280.905,123.633 280.905 C 123.257 280.905,123.103 280.945,123.291 280.994 M132.283 281.004 C 132.904 281.043,133.871 281.042,134.431 281.003 C 134.991 280.964,134.482 280.932,133.301 280.932 C 132.119 280.933,131.661 280.965,132.283 281.004 M227.588 285.886 C 228.098 285.926,228.933 285.926,229.443 285.886 C 229.954 285.846,229.536 285.813,228.516 285.813 C 227.495 285.813,227.078 285.846,227.588 285.886 M293.604 286.275 C 294.006 286.317,294.666 286.317,295.068 286.275 C 295.471 286.233,295.142 286.198,294.336 286.198 C 293.530 286.198,293.201 286.233,293.604 286.275 M123.970 287.055 C 124.317 287.098,124.932 287.099,125.337 287.057 C 125.743 287.014,125.459 286.979,124.707 286.978 C 123.955 286.977,123.624 287.012,123.970 287.055 M156.885 287.058 C 157.395 287.098,158.230 287.098,158.740 287.058 C 159.250 287.017,158.833 286.984,157.813 286.984 C 156.792 286.984,156.375 287.017,156.885 287.058 M173.096 287.244 C 173.284 287.293,173.591 287.293,173.779 287.244 C 173.967 287.195,173.813 287.155,173.438 287.155 C 173.062 287.155,172.908 287.195,173.096 287.244 M231.396 287.253 C 231.960 287.293,232.883 287.293,233.447 287.253 C 234.011 287.214,233.550 287.182,232.422 287.182 C 231.294 287.182,230.833 287.214,231.396 287.253 M324.805 288.928 C 324.805 288.962,325.090 289.248,325.439 289.563 L 326.074 290.137 325.501 289.502 C 324.966 288.910,324.805 288.777,324.805 288.928 M122.607 293.115 C 124.138 293.148,126.643 293.148,128.174 293.115 C 129.705 293.082,128.452 293.055,125.391 293.055 C 122.329 293.055,121.077 293.082,122.607 293.115 M231.894 293.114 C 232.731 293.151,234.049 293.151,234.823 293.114 C 235.597 293.077,234.912 293.047,233.301 293.047 C 231.689 293.047,231.056 293.077,231.894 293.114 M254.834 293.113 C 255.505 293.151,256.604 293.151,257.275 293.113 C 257.947 293.075,257.397 293.044,256.055 293.044 C 254.712 293.044,254.163 293.075,254.834 293.113 M303.662 293.113 C 304.226 293.152,305.149 293.152,305.713 293.113 C 306.277 293.073,305.815 293.041,304.688 293.041 C 303.560 293.041,303.098 293.073,303.662 293.113 M74.953 325.333 C 75.196 325.380,75.548 325.378,75.735 325.330 C 75.921 325.281,75.723 325.242,75.293 325.245 C 74.863 325.247,74.710 325.287,74.953 325.333 " stroke="none" fill="#5c5c5c" fill-rule="evenodd"></path><path id="path3" d="M119.775 114.783 C 119.963 114.832,120.271 114.832,120.459 114.783 C 120.647 114.734,120.493 114.694,120.117 114.694 C 119.741 114.694,119.587 114.734,119.775 114.783 M124.459 190.039 C 124.459 190.415,124.500 190.569,124.549 190.381 C 124.598 190.193,124.598 189.885,124.549 189.697 C 124.500 189.509,124.459 189.663,124.459 190.039 M172.510 252.484 C 172.805 252.528,173.289 252.528,173.584 252.484 C 173.879 252.439,173.638 252.402,173.047 252.402 C 172.456 252.402,172.214 252.439,172.510 252.484 M176.034 257.372 C 176.763 257.409,177.906 257.409,178.573 257.371 C 179.239 257.333,178.643 257.302,177.246 257.302 C 175.850 257.303,175.304 257.334,176.034 257.372 M198.486 260.877 C 198.674 260.926,198.982 260.926,199.170 260.877 C 199.358 260.828,199.204 260.788,198.828 260.788 C 198.452 260.788,198.298 260.828,198.486 260.877 M261.283 264.009 C 261.634 264.052,262.161 264.051,262.455 264.007 C 262.748 263.962,262.461 263.927,261.816 263.928 C 261.172 263.929,260.932 263.965,261.283 264.009 M212.970 264.527 C 212.914 264.675,212.901 265.224,212.941 265.747 L 213.016 266.699 213.051 265.588 L 213.086 264.477 213.818 264.400 L 214.551 264.323 213.812 264.291 C 213.341 264.270,213.036 264.355,212.970 264.527 M175.439 269.275 C 175.627 269.324,175.935 269.324,176.123 269.275 C 176.311 269.226,176.157 269.186,175.781 269.186 C 175.405 269.186,175.251 269.226,175.439 269.275 M223.394 269.284 C 223.853 269.325,224.556 269.325,224.956 269.283 C 225.356 269.241,224.980 269.207,224.121 269.208 C 223.262 269.208,222.934 269.243,223.394 269.284 M283.936 269.282 C 284.285 269.325,284.856 269.325,285.205 269.282 C 285.554 269.239,285.269 269.203,284.570 269.203 C 283.872 269.203,283.586 269.239,283.936 269.282 M304.446 269.279 C 304.689 269.325,305.040 269.324,305.227 269.275 C 305.414 269.226,305.215 269.188,304.785 269.190 C 304.355 269.192,304.203 269.232,304.446 269.279 M87.365 273.388 C 88.633 273.422,90.654 273.422,91.857 273.388 C 93.059 273.354,92.021 273.326,89.551 273.326 C 87.080 273.326,86.096 273.354,87.365 273.388 M123.779 273.380 C 124.021 273.427,124.417 273.427,124.658 273.380 C 124.900 273.333,124.702 273.295,124.219 273.295 C 123.735 273.295,123.538 273.333,123.779 273.380 M155.806 273.383 C 156.153 273.426,156.768 273.427,157.173 273.385 C 157.579 273.342,157.295 273.307,156.543 273.306 C 155.791 273.305,155.459 273.340,155.806 273.383 M102.783 274.549 C 102.971 274.598,103.279 274.598,103.467 274.549 C 103.655 274.500,103.501 274.459,103.125 274.459 C 102.749 274.459,102.595 274.500,102.783 274.549 M112.646 274.747 C 112.888 274.794,113.284 274.794,113.525 274.747 C 113.767 274.701,113.569 274.663,113.086 274.663 C 112.603 274.663,112.405 274.701,112.646 274.747 M122.998 274.747 C 123.240 274.794,123.635 274.794,123.877 274.747 C 124.119 274.701,123.921 274.663,123.438 274.663 C 122.954 274.663,122.756 274.701,122.998 274.747 M194.873 274.747 C 195.115 274.794,195.510 274.794,195.752 274.747 C 195.994 274.701,195.796 274.663,195.313 274.663 C 194.829 274.663,194.631 274.701,194.873 274.747 M201.807 275.879 C 201.809 276.309,201.849 276.461,201.896 276.218 C 201.943 275.975,201.941 275.624,201.892 275.437 C 201.843 275.250,201.805 275.449,201.807 275.879 M99.958 279.636 C 100.525 279.676,101.404 279.676,101.911 279.635 C 102.417 279.595,101.953 279.563,100.879 279.564 C 99.805 279.564,99.390 279.597,99.958 279.636 M174.955 279.634 C 175.306 279.677,175.833 279.676,176.127 279.632 C 176.420 279.587,176.133 279.552,175.488 279.553 C 174.844 279.554,174.604 279.590,174.955 279.634 M213.728 279.637 C 214.349 279.676,215.316 279.675,215.876 279.636 C 216.436 279.597,215.928 279.565,214.746 279.565 C 213.564 279.566,213.106 279.598,213.728 279.637 M85.308 279.831 C 85.767 279.872,86.470 279.871,86.870 279.829 C 87.270 279.788,86.895 279.754,86.035 279.754 C 85.176 279.755,84.849 279.790,85.308 279.831 M104.348 281.000 C 104.645 281.044,105.085 281.043,105.325 280.997 C 105.565 280.951,105.322 280.914,104.785 280.915 C 104.248 280.917,104.052 280.955,104.348 281.000 M110.500 280.998 C 110.743 281.044,111.095 281.042,111.282 280.994 C 111.468 280.945,111.270 280.906,110.840 280.909 C 110.410 280.911,110.257 280.951,110.500 280.998 M203.760 281.934 C 203.762 282.363,203.802 282.516,203.849 282.273 C 203.896 282.030,203.894 281.679,203.845 281.492 C 203.796 281.305,203.758 281.504,203.760 281.934 M231.011 285.885 C 231.470 285.927,232.174 285.926,232.574 285.884 C 232.974 285.842,232.598 285.808,231.738 285.809 C 230.879 285.810,230.552 285.844,231.011 285.885 M91.064 286.072 C 91.252 286.121,91.560 286.121,91.748 286.072 C 91.936 286.023,91.782 285.983,91.406 285.983 C 91.030 285.983,90.876 286.023,91.064 286.072 M146.830 286.079 C 147.181 286.123,147.708 286.122,148.002 286.077 C 148.295 286.032,148.008 285.997,147.363 285.998 C 146.719 285.999,146.479 286.036,146.830 286.079 M201.709 286.079 C 202.058 286.122,202.629 286.122,202.979 286.079 C 203.328 286.035,203.042 286.000,202.344 286.000 C 201.646 286.000,201.360 286.035,201.709 286.079 M291.361 286.274 C 291.712 286.318,292.239 286.317,292.533 286.272 C 292.826 286.228,292.539 286.192,291.895 286.193 C 291.250 286.194,291.010 286.231,291.361 286.274 M122.122 287.054 C 122.419 287.099,122.858 287.098,123.098 287.052 C 123.339 287.005,123.096 286.968,122.559 286.970 C 122.021 286.971,121.825 287.009,122.122 287.054 M160.012 287.054 C 160.309 287.099,160.749 287.098,160.989 287.052 C 161.229 287.005,160.986 286.968,160.449 286.970 C 159.912 286.971,159.716 287.009,160.012 287.054 M227.783 287.253 C 228.293 287.293,229.128 287.293,229.639 287.253 C 230.149 287.213,229.731 287.180,228.711 287.180 C 227.690 287.180,227.273 287.213,227.783 287.253 M132.959 293.115 C 134.167 293.149,136.145 293.149,137.354 293.115 C 138.562 293.080,137.573 293.052,135.156 293.052 C 132.739 293.052,131.750 293.080,132.959 293.115 M224.061 293.114 C 225.210 293.149,227.144 293.149,228.358 293.115 C 229.573 293.080,228.633 293.052,226.270 293.052 C 223.906 293.052,222.913 293.080,224.061 293.114 M307.378 293.112 C 307.838 293.153,308.541 293.153,308.941 293.111 C 309.341 293.069,308.965 293.035,308.105 293.036 C 307.246 293.036,306.919 293.071,307.378 293.112 M65.870 334.668 C 65.872 335.098,65.912 335.250,65.958 335.007 C 66.005 334.765,66.003 334.413,65.955 334.226 C 65.906 334.040,65.867 334.238,65.870 334.668 " stroke="none" fill="#787878" fill-rule="evenodd"></path><path id="path4" d="M336.129 63.525 C 337.255 64.680,338.200 65.625,338.229 65.625 C 338.370 65.625,338.132 65.375,336.182 63.473 L 334.082 61.426 336.129 63.525 M324.208 65.186 L 323.535 65.918 324.268 65.245 C 324.670 64.875,325.000 64.545,325.000 64.512 C 325.000 64.363,324.835 64.504,324.208 65.186 M113.916 114.793 C 114.534 114.832,115.544 114.832,116.162 114.793 C 116.780 114.754,116.274 114.722,115.039 114.722 C 113.804 114.722,113.298 114.754,113.916 114.793 M127.100 114.982 C 127.341 115.028,127.737 115.028,127.979 114.982 C 128.220 114.935,128.022 114.897,127.539 114.897 C 127.056 114.897,126.858 114.935,127.100 114.982 M137.460 115.185 C 138.352 115.221,139.758 115.221,140.585 115.184 C 141.413 115.148,140.684 115.118,138.965 115.118 C 137.246 115.118,136.569 115.148,137.460 115.185 M90.330 185.645 C 90.330 210.352,90.353 220.430,90.381 208.041 C 90.409 195.652,90.409 175.437,90.381 163.119 C 90.353 150.801,90.330 160.938,90.330 185.645 M124.484 186.328 C 124.484 187.349,124.517 187.766,124.558 187.256 C 124.598 186.746,124.598 185.911,124.558 185.400 C 124.517 184.890,124.484 185.308,124.484 186.328 M392.627 193.262 C 392.630 193.691,392.670 193.844,392.716 193.601 C 392.763 193.358,392.761 193.007,392.712 192.820 C 392.663 192.633,392.625 192.832,392.627 193.262 M124.272 196.875 C 124.272 197.358,124.310 197.556,124.357 197.314 C 124.403 197.073,124.403 196.677,124.357 196.436 C 124.310 196.194,124.272 196.392,124.272 196.875 M124.088 205.371 C 124.088 206.123,124.124 206.407,124.166 206.002 C 124.208 205.596,124.208 204.981,124.164 204.634 C 124.121 204.288,124.087 204.619,124.088 205.371 M392.627 206.738 C 392.630 207.168,392.670 207.321,392.716 207.078 C 392.763 206.835,392.761 206.483,392.712 206.297 C 392.663 206.110,392.625 206.309,392.627 206.738 M124.073 211.035 C 124.075 211.465,124.115 211.618,124.162 211.375 C 124.208 211.132,124.207 210.780,124.158 210.593 C 124.109 210.407,124.071 210.605,124.073 211.035 M217.773 242.480 C 218.138 242.856,218.480 243.164,218.534 243.164 C 218.587 243.164,218.333 242.856,217.969 242.480 C 217.604 242.104,217.262 241.797,217.209 241.797 C 217.155 241.797,217.409 242.104,217.773 242.480 M139.205 252.289 C 139.551 252.333,140.167 252.333,140.572 252.291 C 140.977 252.249,140.693 252.213,139.941 252.213 C 139.189 252.212,138.858 252.246,139.205 252.289 M153.867 252.294 C 154.758 252.330,156.164 252.330,156.992 252.293 C 157.819 252.257,157.090 252.227,155.371 252.227 C 153.652 252.228,152.975 252.258,153.867 252.294 M222.607 252.286 C 222.849 252.333,223.245 252.333,223.486 252.286 C 223.728 252.240,223.530 252.202,223.047 252.202 C 222.563 252.202,222.366 252.240,222.607 252.286 M130.520 252.484 C 130.817 252.529,131.257 252.528,131.497 252.481 C 131.737 252.435,131.494 252.398,130.957 252.400 C 130.420 252.401,130.223 252.439,130.520 252.484 M177.979 252.489 C 178.704 252.526,179.890 252.526,180.615 252.489 C 181.340 252.451,180.747 252.420,179.297 252.420 C 177.847 252.420,177.253 252.451,177.979 252.489 M211.670 252.487 C 212.126 252.528,212.874 252.528,213.330 252.487 C 213.787 252.446,213.413 252.412,212.500 252.412 C 211.587 252.412,211.213 252.446,211.670 252.487 M112.252 252.680 C 112.598 252.723,113.213 252.724,113.619 252.682 C 114.024 252.639,113.740 252.604,112.988 252.603 C 112.236 252.602,111.905 252.637,112.252 252.680 M120.166 252.683 C 120.676 252.723,121.511 252.723,122.021 252.683 C 122.532 252.642,122.114 252.609,121.094 252.609 C 120.073 252.609,119.656 252.642,120.166 252.683 M120.947 257.366 C 121.243 257.411,121.726 257.411,122.021 257.366 C 122.317 257.322,122.075 257.285,121.484 257.285 C 120.894 257.285,120.652 257.322,120.947 257.366 M187.453 257.365 C 187.696 257.411,188.048 257.410,188.235 257.361 C 188.421 257.312,188.223 257.274,187.793 257.276 C 187.363 257.278,187.210 257.318,187.453 257.365 M202.616 257.698 C 202.558 257.850,202.547 258.224,202.593 258.528 C 202.664 259.005,202.680 258.982,202.705 258.366 C 202.721 257.972,202.844 257.605,202.979 257.551 C 203.170 257.474,203.168 257.449,202.972 257.437 C 202.835 257.429,202.674 257.546,202.616 257.698 M290.181 257.758 C 290.528 257.801,291.143 257.802,291.548 257.760 C 291.954 257.717,291.670 257.682,290.918 257.681 C 290.166 257.680,289.834 257.715,290.181 257.758 M163.261 260.801 C 163.348 260.887,163.981 260.930,164.668 260.897 L 165.918 260.835 164.511 260.740 C 163.737 260.687,163.175 260.715,163.261 260.801 M173.880 260.687 C 174.177 260.732,174.616 260.731,174.856 260.684 C 175.096 260.638,174.854 260.601,174.316 260.603 C 173.779 260.604,173.583 260.642,173.880 260.687 M282.861 260.692 C 283.801 260.728,285.339 260.728,286.279 260.692 C 287.219 260.656,286.450 260.627,284.570 260.627 C 282.690 260.627,281.921 260.656,282.861 260.692 M117.330 260.883 C 117.676 260.926,118.292 260.927,118.697 260.885 C 119.102 260.842,118.818 260.807,118.066 260.806 C 117.314 260.805,116.983 260.840,117.330 260.883 M131.885 260.877 C 132.073 260.926,132.380 260.926,132.568 260.877 C 132.756 260.828,132.603 260.788,132.227 260.788 C 131.851 260.788,131.697 260.828,131.885 260.877 M157.568 260.885 C 158.025 260.926,158.772 260.926,159.229 260.885 C 159.685 260.844,159.312 260.810,158.398 260.810 C 157.485 260.810,157.112 260.844,157.568 260.885 M93.408 264.205 C 93.811 264.247,94.470 264.247,94.873 264.205 C 95.276 264.163,94.946 264.128,94.141 264.128 C 93.335 264.128,93.005 264.163,93.408 264.205 M104.639 264.204 C 104.988 264.247,105.559 264.247,105.908 264.204 C 106.257 264.160,105.972 264.125,105.273 264.125 C 104.575 264.125,104.290 264.160,104.639 264.204 M138.428 264.396 C 138.669 264.442,139.065 264.442,139.307 264.396 C 139.548 264.349,139.351 264.311,138.867 264.311 C 138.384 264.311,138.186 264.349,138.428 264.396 M149.268 264.392 C 149.456 264.442,149.763 264.442,149.951 264.392 C 150.139 264.343,149.985 264.303,149.609 264.303 C 149.233 264.303,149.080 264.343,149.268 264.392 M181.985 264.591 C 182.228 264.638,182.579 264.636,182.766 264.587 C 182.953 264.538,182.754 264.500,182.324 264.502 C 181.895 264.505,181.742 264.545,181.985 264.591 M190.481 264.593 C 190.778 264.638,191.218 264.637,191.458 264.591 C 191.698 264.544,191.455 264.508,190.918 264.509 C 190.381 264.510,190.184 264.548,190.481 264.593 M114.307 267.718 C 114.602 267.763,115.085 267.763,115.381 267.718 C 115.676 267.673,115.435 267.637,114.844 267.637 C 114.253 267.637,114.011 267.673,114.307 267.718 M136.768 267.713 C 136.956 267.762,137.263 267.762,137.451 267.713 C 137.639 267.664,137.485 267.623,137.109 267.623 C 136.733 267.623,136.580 267.664,136.768 267.713 M147.323 267.723 C 148.052 267.761,149.195 267.761,149.862 267.723 C 150.529 267.685,149.932 267.654,148.535 267.654 C 147.139 267.654,146.593 267.685,147.323 267.723 M172.314 267.713 C 172.502 267.762,172.810 267.762,172.998 267.713 C 173.186 267.664,173.032 267.623,172.656 267.623 C 172.280 267.623,172.126 267.664,172.314 267.713 M199.170 267.719 C 199.519 267.763,200.090 267.763,200.439 267.719 C 200.789 267.676,200.503 267.641,199.805 267.641 C 199.106 267.641,198.821 267.676,199.170 267.719 M214.600 267.723 C 215.486 267.760,216.936 267.760,217.822 267.723 C 218.708 267.687,217.983 267.658,216.211 267.658 C 214.438 267.658,213.713 267.687,214.600 267.723 M226.709 267.722 C 227.273 267.762,228.196 267.762,228.760 267.722 C 229.324 267.683,228.862 267.650,227.734 267.650 C 226.606 267.650,226.145 267.683,226.709 267.722 M293.018 267.908 C 293.206 267.957,293.513 267.957,293.701 267.908 C 293.889 267.859,293.735 267.819,293.359 267.819 C 292.983 267.819,292.830 267.859,293.018 267.908 M114.893 269.080 C 115.081 269.129,115.388 269.129,115.576 269.080 C 115.764 269.031,115.610 268.991,115.234 268.991 C 114.858 268.991,114.705 269.031,114.893 269.080 M101.096 269.301 C 101.042 269.389,101.256 269.423,101.573 269.376 C 101.889 269.330,102.148 269.258,102.148 269.216 C 102.148 269.067,101.193 269.144,101.096 269.301 M122.314 269.281 C 122.610 269.325,123.093 269.325,123.389 269.281 C 123.684 269.236,123.442 269.199,122.852 269.199 C 122.261 269.199,122.019 269.236,122.314 269.281 M132.568 269.286 C 133.455 269.322,134.905 269.322,135.791 269.286 C 136.677 269.250,135.952 269.220,134.180 269.220 C 132.407 269.220,131.682 269.250,132.568 269.286 M171.826 269.282 C 172.175 269.325,172.747 269.325,173.096 269.282 C 173.445 269.239,173.159 269.203,172.461 269.203 C 171.763 269.203,171.477 269.239,171.826 269.282 M184.326 269.278 C 184.568 269.325,184.963 269.325,185.205 269.278 C 185.447 269.232,185.249 269.194,184.766 269.194 C 184.282 269.194,184.084 269.232,184.326 269.278 M194.880 269.285 C 195.447 269.324,196.326 269.324,196.833 269.284 C 197.339 269.244,196.875 269.211,195.801 269.212 C 194.727 269.212,194.312 269.245,194.880 269.285 M263.822 269.282 C 264.173 269.326,264.700 269.325,264.994 269.280 C 265.287 269.236,265.000 269.200,264.355 269.201 C 263.711 269.202,263.471 269.239,263.822 269.282 M279.221 269.301 C 279.167 269.389,279.381 269.423,279.698 269.376 C 280.014 269.330,280.273 269.258,280.273 269.216 C 280.273 269.067,279.318 269.144,279.221 269.301 M247.510 269.471 C 247.698 269.520,248.005 269.520,248.193 269.471 C 248.381 269.421,248.228 269.381,247.852 269.381 C 247.476 269.381,247.322 269.421,247.510 269.471 M257.669 269.476 C 257.966 269.521,258.405 269.520,258.645 269.473 C 258.885 269.427,258.643 269.390,258.105 269.392 C 257.568 269.393,257.372 269.431,257.669 269.476 M209.442 271.582 C 209.443 272.441,209.477 272.769,209.518 272.309 C 209.560 271.850,209.559 271.147,209.517 270.747 C 209.475 270.347,209.441 270.723,209.442 271.582 M139.258 273.091 C 139.258 273.174,139.609 273.242,140.039 273.242 C 140.469 273.242,140.820 273.207,140.820 273.165 C 140.820 273.123,140.469 273.054,140.039 273.013 C 139.609 272.972,139.258 273.007,139.258 273.091 M119.087 273.383 C 119.434 273.426,120.049 273.427,120.455 273.385 C 120.860 273.342,120.576 273.307,119.824 273.306 C 119.072 273.305,118.741 273.340,119.087 273.383 M129.443 273.380 C 129.685 273.427,130.081 273.427,130.322 273.380 C 130.564 273.333,130.366 273.295,129.883 273.295 C 129.399 273.295,129.202 273.333,129.443 273.380 M303.369 273.580 C 303.772 273.622,304.431 273.622,304.834 273.580 C 305.237 273.538,304.907 273.503,304.102 273.503 C 303.296 273.503,302.966 273.538,303.369 273.580 M219.351 274.162 C 219.337 274.569,219.235 274.598,217.627 274.659 L 215.918 274.724 217.633 274.765 C 219.386 274.806,219.738 274.655,219.467 273.981 C 219.412 273.843,219.360 273.925,219.351 274.162 M247.611 274.360 C 247.962 274.404,248.489 274.403,248.783 274.358 C 249.076 274.314,248.789 274.278,248.145 274.279 C 247.500 274.280,247.260 274.317,247.611 274.360 M268.994 274.353 C 269.182 274.403,269.490 274.403,269.678 274.353 C 269.866 274.304,269.712 274.264,269.336 274.264 C 268.960 274.264,268.806 274.304,268.994 274.353 M81.895 274.755 C 83.056 274.790,84.902 274.790,85.997 274.755 C 87.092 274.720,86.143 274.692,83.887 274.692 C 81.631 274.692,80.735 274.721,81.895 274.755 M132.286 274.755 C 133.447 274.790,135.292 274.790,136.388 274.755 C 137.483 274.720,136.533 274.692,134.277 274.692 C 132.021 274.692,131.125 274.721,132.286 274.755 M198.486 274.749 C 198.782 274.794,199.265 274.794,199.561 274.749 C 199.856 274.705,199.614 274.668,199.023 274.668 C 198.433 274.668,198.191 274.705,198.486 274.749 M147.317 274.945 C 147.614 274.990,148.053 274.989,148.294 274.942 C 148.534 274.896,148.291 274.859,147.754 274.861 C 147.217 274.862,147.020 274.900,147.317 274.945 M156.689 274.939 C 156.877 274.988,157.185 274.988,157.373 274.939 C 157.561 274.890,157.407 274.850,157.031 274.850 C 156.655 274.850,156.501 274.890,156.689 274.939 M166.164 274.943 C 166.407 274.990,166.759 274.988,166.946 274.939 C 167.132 274.890,166.934 274.852,166.504 274.854 C 166.074 274.856,165.921 274.896,166.164 274.943 M188.867 274.880 C 188.867 274.922,189.126 274.994,189.443 275.040 C 189.759 275.087,189.974 275.053,189.920 274.965 C 189.823 274.808,188.867 274.731,188.867 274.880 M296.729 274.939 C 296.917 274.988,297.224 274.988,297.412 274.939 C 297.600 274.890,297.446 274.850,297.070 274.850 C 296.694 274.850,296.541 274.890,296.729 274.939 M320.703 275.061 C 320.703 275.095,320.989 275.380,321.338 275.696 L 321.973 276.270 321.399 275.635 C 320.864 275.043,320.703 274.910,320.703 275.061 M160.502 279.438 C 160.853 279.482,161.380 279.481,161.673 279.436 C 161.967 279.392,161.680 279.356,161.035 279.357 C 160.391 279.358,160.150 279.395,160.502 279.438 M112.451 279.635 C 112.908 279.676,113.655 279.676,114.111 279.635 C 114.568 279.594,114.194 279.560,113.281 279.560 C 112.368 279.560,111.995 279.594,112.451 279.635 M124.563 279.630 C 124.806 279.677,125.157 279.675,125.344 279.626 C 125.531 279.577,125.332 279.539,124.902 279.541 C 124.473 279.544,124.320 279.584,124.563 279.630 M130.333 279.638 C 131.494 279.673,133.339 279.672,134.434 279.638 C 135.530 279.603,134.580 279.575,132.324 279.575 C 130.068 279.575,129.172 279.603,130.333 279.638 M140.663 279.638 C 141.812 279.672,143.745 279.672,144.960 279.638 C 146.174 279.604,145.234 279.576,142.871 279.575 C 140.508 279.575,139.514 279.603,140.663 279.638 M154.641 279.630 C 154.884 279.677,155.235 279.675,155.422 279.626 C 155.609 279.577,155.410 279.539,154.980 279.541 C 154.551 279.544,154.398 279.584,154.641 279.630 M197.607 279.630 C 197.849 279.677,198.245 279.677,198.486 279.630 C 198.728 279.583,198.530 279.545,198.047 279.545 C 197.563 279.545,197.366 279.583,197.607 279.630 M204.454 279.638 C 205.561 279.673,207.318 279.673,208.360 279.638 C 209.402 279.603,208.496 279.574,206.348 279.574 C 204.199 279.574,203.347 279.603,204.454 279.638 M225.353 279.638 C 226.675 279.672,228.784 279.672,230.040 279.638 C 231.297 279.604,230.215 279.576,227.637 279.576 C 225.059 279.577,224.031 279.604,225.353 279.638 M289.209 279.833 C 290.095 279.869,291.545 279.869,292.432 279.833 C 293.318 279.797,292.593 279.767,290.820 279.767 C 289.048 279.767,288.323 279.797,289.209 279.833 M308.252 279.822 C 308.440 279.871,308.748 279.871,308.936 279.822 C 309.124 279.773,308.970 279.733,308.594 279.733 C 308.218 279.733,308.064 279.773,308.252 279.822 M212.939 280.804 C 213.235 280.849,213.718 280.849,214.014 280.804 C 214.309 280.759,214.067 280.723,213.477 280.723 C 212.886 280.723,212.644 280.759,212.939 280.804 M226.123 280.802 C 226.365 280.848,226.760 280.848,227.002 280.802 C 227.244 280.755,227.046 280.717,226.563 280.717 C 226.079 280.717,225.881 280.755,226.123 280.802 M113.423 281.000 C 113.770 281.043,114.385 281.044,114.791 281.002 C 115.196 280.960,114.912 280.924,114.160 280.923 C 113.408 280.923,113.077 280.957,113.423 281.000 M124.658 280.999 C 124.954 281.044,125.437 281.044,125.732 280.999 C 126.028 280.955,125.786 280.918,125.195 280.918 C 124.604 280.918,124.363 280.955,124.658 280.999 M136.279 281.003 C 136.843 281.043,137.766 281.043,138.330 281.003 C 138.894 280.964,138.433 280.932,137.305 280.932 C 136.177 280.932,135.715 280.964,136.279 281.003 M149.072 280.994 C 149.260 281.043,149.568 281.043,149.756 280.994 C 149.944 280.945,149.790 280.905,149.414 280.905 C 149.038 280.905,148.884 280.945,149.072 280.994 M164.797 280.998 C 165.040 281.044,165.392 281.042,165.578 280.994 C 165.765 280.945,165.566 280.906,165.137 280.909 C 164.707 280.911,164.554 280.951,164.797 280.998 M169.873 280.997 C 170.115 281.044,170.510 281.044,170.752 280.997 C 170.994 280.951,170.796 280.913,170.313 280.913 C 169.829 280.913,169.631 280.951,169.873 280.997 M180.127 280.994 C 180.315 281.043,180.623 281.043,180.811 280.994 C 180.999 280.945,180.845 280.905,180.469 280.905 C 180.093 280.905,179.939 280.945,180.127 280.994 M304.834 281.388 C 305.076 281.434,305.471 281.434,305.713 281.388 C 305.955 281.341,305.757 281.303,305.273 281.303 C 304.790 281.303,304.592 281.341,304.834 281.388 M103.601 285.400 L 103.027 286.035 103.662 285.462 C 104.011 285.146,104.297 284.860,104.297 284.827 C 104.297 284.676,104.136 284.809,103.601 285.400 M129.250 285.880 C 129.493 285.927,129.845 285.925,130.032 285.876 C 130.218 285.827,130.020 285.789,129.590 285.791 C 129.160 285.794,129.007 285.834,129.250 285.880 M164.795 285.880 C 165.037 285.927,165.432 285.927,165.674 285.880 C 165.916 285.833,165.718 285.795,165.234 285.795 C 164.751 285.795,164.553 285.833,164.795 285.880 M222.519 285.888 C 223.356 285.924,224.674 285.924,225.448 285.887 C 226.222 285.850,225.537 285.820,223.926 285.820 C 222.314 285.821,221.681 285.851,222.519 285.888 M258.352 285.880 C 258.595 285.927,258.946 285.925,259.133 285.876 C 259.320 285.827,259.121 285.789,258.691 285.791 C 258.262 285.794,258.109 285.834,258.352 285.880 M296.441 286.276 C 296.900 286.317,297.603 286.317,298.003 286.275 C 298.403 286.233,298.027 286.199,297.168 286.200 C 296.309 286.200,295.981 286.235,296.441 286.276 M307.666 286.273 C 307.961 286.317,308.445 286.317,308.740 286.273 C 309.036 286.228,308.794 286.191,308.203 286.191 C 307.612 286.191,307.371 286.228,307.666 286.273 M300.928 286.864 C 301.707 286.901,302.981 286.901,303.760 286.864 C 304.539 286.827,303.901 286.796,302.344 286.796 C 300.786 286.796,300.149 286.827,300.928 286.864 M127.686 287.060 C 128.679 287.095,130.305 287.095,131.299 287.060 C 132.292 287.024,131.479 286.995,129.492 286.995 C 127.505 286.995,126.692 287.024,127.686 287.060 M150.146 287.060 C 151.248 287.095,153.049 287.095,154.150 287.060 C 155.251 287.025,154.351 286.996,152.148 286.996 C 149.946 286.996,149.045 287.025,150.146 287.060 M213.627 287.056 C 213.978 287.099,214.505 287.098,214.798 287.054 C 215.092 287.009,214.805 286.973,214.160 286.975 C 213.516 286.976,213.275 287.012,213.627 287.056 M100.830 287.244 C 101.018 287.293,101.326 287.293,101.514 287.244 C 101.702 287.195,101.548 287.155,101.172 287.155 C 100.796 287.155,100.642 287.195,100.830 287.244 M112.649 287.248 C 112.892 287.294,113.243 287.292,113.430 287.244 C 113.617 287.195,113.418 287.156,112.988 287.159 C 112.559 287.161,112.406 287.201,112.649 287.248 M171.536 287.250 C 171.833 287.294,172.272 287.293,172.512 287.247 C 172.753 287.201,172.510 287.164,171.973 287.165 C 171.436 287.167,171.239 287.205,171.536 287.250 M195.252 287.249 C 195.487 287.293,195.719 287.457,195.769 287.613 C 195.826 287.794,195.847 287.772,195.828 287.553 C 195.808 287.329,195.626 287.200,195.311 287.188 C 194.910 287.173,194.900 287.183,195.252 287.249 M186.380 287.445 C 186.677 287.490,187.116 287.489,187.356 287.442 C 187.596 287.396,187.354 287.359,186.816 287.361 C 186.279 287.362,186.083 287.400,186.380 287.445 M269.726 287.451 C 269.726 287.532,270.275 287.573,270.947 287.543 C 273.151 287.445,273.370 287.368,271.533 287.336 C 270.540 287.319,269.726 287.371,269.726 287.451 M198.678 292.188 C 198.678 292.563,198.718 292.717,198.767 292.529 C 198.817 292.341,198.817 292.034,198.767 291.846 C 198.718 291.658,198.678 291.812,198.678 292.188 M266.455 292.913 C 266.750 292.958,267.234 292.958,267.529 292.913 C 267.825 292.869,267.583 292.832,266.992 292.832 C 266.401 292.832,266.160 292.869,266.455 292.913 M81.689 293.112 C 82.200 293.153,83.035 293.153,83.545 293.112 C 84.055 293.072,83.638 293.039,82.617 293.039 C 81.597 293.039,81.179 293.072,81.689 293.112 M92.627 293.115 C 93.997 293.148,96.238 293.148,97.607 293.115 C 98.977 293.081,97.856 293.054,95.117 293.054 C 92.378 293.054,91.257 293.081,92.627 293.115 M107.458 293.115 C 109.572 293.146,113.088 293.146,115.270 293.115 C 117.453 293.084,115.723 293.058,111.426 293.058 C 107.129 293.058,105.343 293.083,107.458 293.115 M199.365 293.107 C 199.607 293.153,200.002 293.153,200.244 293.107 C 200.486 293.060,200.288 293.022,199.805 293.022 C 199.321 293.022,199.124 293.060,199.365 293.107 M250.642 293.113 C 251.263 293.152,252.230 293.152,252.790 293.112 C 253.350 293.073,252.842 293.041,251.660 293.042 C 250.479 293.042,250.020 293.074,250.642 293.113 M297.998 293.114 C 298.884 293.150,300.334 293.150,301.221 293.114 C 302.107 293.078,301.382 293.048,299.609 293.048 C 297.837 293.048,297.112 293.078,297.998 293.114 M336.129 336.475 L 334.082 338.574 336.182 336.527 C 338.132 334.625,338.370 334.375,338.229 334.375 C 338.200 334.375,337.255 335.320,336.129 336.475 M192.922 392.716 C 193.165 392.763,193.517 392.761,193.703 392.712 C 193.890 392.663,193.691 392.625,193.262 392.627 C 192.832 392.630,192.679 392.670,192.922 392.716 M206.399 392.716 C 206.642 392.763,206.993 392.761,207.180 392.712 C 207.367 392.663,207.168 392.625,206.738 392.627 C 206.309 392.630,206.156 392.670,206.399 392.716 " stroke="none" fill="#444444" fill-rule="evenodd"></path></g></svg>